{
  "accessors": [
    {
      "name": "vmd_mol0_rep1_1_0_positions",
      "componentType": 5126,
      "count": 6384,
      "min": [
        -0.4379790127277374,
        -0.570900022983551,
        -0.2459930032491684
      ],
      "max": [
        0.43745100498199463,
        0.015691999346017838,
        0.2459930032491684
      ],
      "type": "VEC3",
      "bufferView": 0,
      "byteOffset": 0
    },
    {
      "name": "vmd_mol0_rep1_1_0_normals",
      "componentType": 5126,
      "count": 6384,
      "min": [
        -1,
        -1,
        -1
      ],
      "max": [
        1,
        1,
        1
      ],
      "type": "VEC3",
      "bufferView": 1,
      "byteOffset": 0
    },
    {
      "name": "vmd_mol0_rep1_1_0_indices",
      "componentType": 5123,
      "count": 6384,
      "min": [
        0
      ],
      "max": [
        6383
      ],
      "type": "SCALAR",
      "bufferView": 2,
      "byteOffset": 0
    },
    {
      "name": "vmd_mol0_rep1_1_1_positions",
      "componentType": 5126,
      "count": 12528,
      "min": [
        -0.9118369817733765,
        -0.17747199535369873,
        -0.16183699667453766
      ],
      "max": [
        0.9118369817733765,
        0.3242909908294678,
        0.16183699667453766
      ],
      "type": "VEC3",
      "bufferView": 0,
      "byteOffset": 76608
    },
    {
      "name": "vmd_mol0_rep1_1_1_normals",
      "componentType": 5126,
      "count": 12528,
      "min": [
        -1,
        -1,
        -1
      ],
      "max": [
        1,
        1,
        1
      ],
      "type": "VEC3",
      "bufferView": 1,
      "byteOffset": 76608
    },
    {
      "name": "vmd_mol0_rep1_1_1_indices",
      "componentType": 5123,
      "count": 12528,
      "min": [
        0
      ],
      "max": [
        12527
      ],
      "type": "SCALAR",
      "bufferView": 2,
      "byteOffset": 12768
    }
  ],
  "asset": {
    "generator": "obj2gltf",
    "version": "2.0"
  },
  "buffers": [
    {
      "name": "h2o",
      "byteLength": 491712,
      "uri": "data:application/octet-stream;base64,"
    }
  ],
  "bufferViews": [
    {
      "name": "bufferView_0",
      "buffer": 0,
      "byteLength": 226944,
      "byteOffset": 0,
      "byteStride": 12,
      "target": 34962
    },
    {
      "name": "bufferView_1",
      "buffer": 0,
      "byteLength": 226944,
      "byteOffset": 226944,
      "byteStride": 12,
      "target": 34962
    },
    {
      "name": "bufferView_2",
      "buffer": 0,
      "byteLength": 37824,
      "byteOffset": 453888,
      "target": 34963
    }
  ],
  "materials": [
    {
      "name": "vmd_mat_cindex_1",
      "pbrMetallicRoughness": {
        "baseColorFactor": [
          0.65,
          0,
          0,
          1
        ],
        "metallicFactor": 0,
        "roughnessFactor": 0.96
      },
      "emissiveFactor": [
        0,
        0,
        0
      ],
      "alphaMode": "OPAQUE",
      "doubleSided": false
    },
    {
      "name": "vmd_mat_cindex_8",
      "pbrMetallicRoughness": {
        "baseColorFactor": [
          0.65,
          0.65,
          0.65,
          1
        ],
        "metallicFactor": 0,
        "roughnessFactor": 0.96
      },
      "emissiveFactor": [
        0,
        0,
        0
      ],
      "alphaMode": "OPAQUE",
      "doubleSided": false
    }
  ],
  "meshes": [
    {
      "name": "vmd_mol0_rep1_1",
      "primitives": [
        {
          "attributes": {
            "POSITION": 0,
            "NORMAL": 1
          },
          "indices": 2,
          "material": 0,
          "mode": 4
        },
        {
          "attributes": {
            "POSITION": 3,
            "NORMAL": 4
          },
          "indices": 5,
          "material": 1,
          "mode": 4
        }
      ]
    }
  ],
  "nodes": [
    {
      "name": "vmd_mol0_rep1",
      "mesh": 0
    }
  ],
  "scene": 0,
  "scenes": [
    {
      "nodes": [
        0
      ]
    }
  ]
}
