{
    "asset" : {
        "generator" : "Khronos glTF Blender I/O v1.1.46",
        "version" : "2.0"
    },
    "scene" : 0,
    "scenes" : [
        {
            "name" : "Scene",
            "nodes" : [
                0
            ]
        }
    ],
    "nodes" : [
        {
            "mesh" : 0,
            "name" : "vmd_mol0_rep2",
            "rotation" : [
                0.7071068286895752,
                0,
                0,
                0.7071067094802856
            ]
        }
    ],
    "materials" : [
        {
            "emissiveFactor" : [
                0,
                0,
                0
            ],
            "name" : "vmd_mat_cindex_0",
            "pbrMetallicRoughness" : {
                "baseColorFactor" : [
                    0,
                    0,
                    0.6499999761581421,
                    1
                ],
                "metallicFactor" : 0,
                "roughnessFactor" : 0.9253919720649719
            }
        },
        {
            "emissiveFactor" : [
                0,
                0,
                0
            ],
            "name" : "vmd_mat_cindex_6",
            "pbrMetallicRoughness" : {
                "baseColorFactor" : [
                    0.38999998569488525,
                    0.38999998569488525,
                    0.38999998569488525,
                    1
                ],
                "metallicFactor" : 0,
                "roughnessFactor" : 0.9599999785423279
            }
        },
        {
            "emissiveFactor" : [
                0,
                0,
                0
            ],
            "name" : "vmd_mat_cindex_1",
            "pbrMetallicRoughness" : {
                "baseColorFactor" : [
                    0.6499999761581421,
                    0,
                    0,
                    1
                ],
                "metallicFactor" : 0,
                "roughnessFactor" : 0.9599999785423279
            }
        },
        {
            "emissiveFactor" : [
                0,
                0,
                0
            ],
            "name" : "vmd_mat_cindex_8",
            "pbrMetallicRoughness" : {
                "baseColorFactor" : [
                    0.6499999761581421,
                    0.6499999761581421,
                    0.6499999761581421,
                    1
                ],
                "metallicFactor" : 0,
                "roughnessFactor" : 0.9599999785423279
            }
        }
    ],
    "meshes" : [
        {
            "name" : "vmd_mol0_rep2_1",
            "primitives" : [
                {
                    "attributes" : {
                        "POSITION" : 0,
                        "NORMAL" : 1
                    },
                    "indices" : 2,
                    "material" : 0
                },
                {
                    "attributes" : {
                        "POSITION" : 3,
                        "NORMAL" : 4
                    },
                    "indices" : 5,
                    "material" : 1
                },
                {
                    "attributes" : {
                        "POSITION" : 6,
                        "NORMAL" : 7
                    },
                    "indices" : 8,
                    "material" : 2
                },
                {
                    "attributes" : {
                        "POSITION" : 9,
                        "NORMAL" : 10
                    },
                    "indices" : 11,
                    "material" : 3
                }
            ]
        }
    ],
    "accessors" : [
        {
            "bufferView" : 0,
            "componentType" : 5126,
            "count" : 2352,
            "max" : [
                0.3578965961933136,
                0.1655232012271881,
                0.09067286550998688
            ],
            "min" : [
                -0.6112323999404907,
                -0.046647801995277405,
                -0.3293341398239136
            ],
            "type" : "VEC3"
        },
        {
            "bufferView" : 1,
            "componentType" : 5126,
            "count" : 2352,
            "type" : "VEC3"
        },
        {
            "bufferView" : 2,
            "componentType" : 5123,
            "count" : 2352,
            "type" : "SCALAR"
        },
        {
            "bufferView" : 3,
            "componentType" : 5126,
            "count" : 13224,
            "max" : [
                0.6341655850410461,
                0.2531222105026245,
                0.656377911567688
            ],
            "min" : [
                -0.5465893745422363,
                -0.23688779771327972,
                -0.565010130405426
            ],
            "type" : "VEC3"
        },
        {
            "bufferView" : 4,
            "componentType" : 5126,
            "count" : 13224,
            "type" : "VEC3"
        },
        {
            "bufferView" : 5,
            "componentType" : 5123,
            "count" : 13224,
            "type" : "SCALAR"
        },
        {
            "bufferView" : 6,
            "componentType" : 5126,
            "count" : 2520,
            "max" : [
                0.6781876087188721,
                0.3182021975517273,
                0.7448118925094604
            ],
            "min" : [
                -0.2620394229888916,
                -0.2574217915534973,
                -0.3108271360397339
            ],
            "type" : "VEC3"
        },
        {
            "bufferView" : 7,
            "componentType" : 5126,
            "count" : 2520,
            "type" : "VEC3"
        },
        {
            "bufferView" : 8,
            "componentType" : 5123,
            "count" : 2520,
            "type" : "SCALAR"
        },
        {
            "bufferView" : 9,
            "componentType" : 5126,
            "count" : 14112,
            "max" : [
                0.6832525730133057,
                0.34112221002578735,
                0.48375385999679565
            ],
            "min" : [
                -0.6946474313735962,
                -0.3246908187866211,
                -0.6320230960845947
            ],
            "type" : "VEC3"
        },
        {
            "bufferView" : 10,
            "componentType" : 5126,
            "count" : 14112,
            "type" : "VEC3"
        },
        {
            "bufferView" : 11,
            "componentType" : 5123,
            "count" : 14112,
            "type" : "SCALAR"
        }
    ],
    "bufferViews" : [
        {
            "buffer" : 0,
            "byteLength" : 28224,
            "byteOffset" : 0
        },
        {
            "buffer" : 0,
            "byteLength" : 28224,
            "byteOffset" : 28224
        },
        {
            "buffer" : 0,
            "byteLength" : 4704,
            "byteOffset" : 56448
        },
        {
            "buffer" : 0,
            "byteLength" : 158688,
            "byteOffset" : 61152
        },
        {
            "buffer" : 0,
            "byteLength" : 158688,
            "byteOffset" : 219840
        },
        {
            "buffer" : 0,
            "byteLength" : 26448,
            "byteOffset" : 378528
        },
        {
            "buffer" : 0,
            "byteLength" : 30240,
            "byteOffset" : 404976
        },
        {
            "buffer" : 0,
            "byteLength" : 30240,
            "byteOffset" : 435216
        },
        {
            "buffer" : 0,
            "byteLength" : 5040,
            "byteOffset" : 465456
        },
        {
            "buffer" : 0,
            "byteLength" : 169344,
            "byteOffset" : 470496
        },
        {
            "buffer" : 0,
            "byteLength" : 169344,
            "byteOffset" : 639840
        },
        {
            "buffer" : 0,
            "byteLength" : 28224,
            "byteOffset" : 809184
        }
    ],
    "buffers" : [
        {
            "byteLength" : 837408,
            "uri" : "data:application/octet-stream;base64,"
        }
    ]
}
