{
    "asset" : {
        "generator" : "Khronos glTF Blender I/O v1.1.46",
        "version" : "2.0"
    },
    "scene" : 0,
    "scenes" : [
        {
            "name" : "Scene",
            "nodes" : [
                0
            ]
        }
    ],
    "nodes" : [
        {
            "mesh" : 0,
            "name" : "vmd_mol0_rep3",
            "rotation" : [
                0.7071068286895752,
                0,
                0,
                0.7071067094802856
            ]
        }
    ],
    "materials" : [
        {
            "emissiveFactor" : [
                0,
                0,
                0
            ],
            "name" : "vmd_mat_cindex_0.002",
            "pbrMetallicRoughness" : {
                "baseColorFactor" : [
                    0,
                    0,
                    0.6499999761581421,
                    1
                ],
                "metallicFactor" : 0,
                "roughnessFactor" : 0.9253919720649719
            }
        },
        {
            "emissiveFactor" : [
                0,
                0,
                0
            ],
            "name" : "vmd_mat_cindex_6.002",
            "pbrMetallicRoughness" : {
                "baseColorFactor" : [
                    0.38999998569488525,
                    0.38999998569488525,
                    0.38999998569488525,
                    1
                ],
                "metallicFactor" : 0,
                "roughnessFactor" : 0.9599999785423279
            }
        },
        {
            "emissiveFactor" : [
                0,
                0,
                0
            ],
            "name" : "vmd_mat_cindex_1.002",
            "pbrMetallicRoughness" : {
                "baseColorFactor" : [
                    0.6499999761581421,
                    0,
                    0,
                    1
                ],
                "metallicFactor" : 0,
                "roughnessFactor" : 0.9599999785423279
            }
        },
        {
            "emissiveFactor" : [
                0,
                0,
                0
            ],
            "name" : "vmd_mat_cindex_8.002",
            "pbrMetallicRoughness" : {
                "baseColorFactor" : [
                    0.6499999761581421,
                    0.6499999761581421,
                    0.6499999761581421,
                    1
                ],
                "metallicFactor" : 0,
                "roughnessFactor" : 0.9599999785423279
            }
        }
    ],
    "meshes" : [
        {
            "name" : "vmd_mol0_rep3_1",
            "primitives" : [
                {
                    "attributes" : {
                        "POSITION" : 0,
                        "NORMAL" : 1
                    },
                    "indices" : 2,
                    "material" : 0
                },
                {
                    "attributes" : {
                        "POSITION" : 3,
                        "NORMAL" : 4
                    },
                    "indices" : 5,
                    "material" : 1
                },
                {
                    "attributes" : {
                        "POSITION" : 6,
                        "NORMAL" : 7
                    },
                    "indices" : 8,
                    "material" : 2
                },
                {
                    "attributes" : {
                        "POSITION" : 9,
                        "NORMAL" : 10
                    },
                    "indices" : 11,
                    "material" : 3
                }
            ]
        }
    ],
    "accessors" : [
        {
            "bufferView" : 0,
            "componentType" : 5126,
            "count" : 2856,
            "max" : [
                0.5171307325363159,
                0.12672346830368042,
                0.10940102487802505
            ],
            "min" : [
                -0.9016872048377991,
                -0.1887725442647934,
                -0.14507797360420227
            ],
            "type" : "VEC3"
        },
        {
            "bufferView" : 1,
            "componentType" : 5126,
            "count" : 2856,
            "type" : "VEC3"
        },
        {
            "bufferView" : 2,
            "componentType" : 5123,
            "count" : 2856,
            "type" : "SCALAR"
        },
        {
            "bufferView" : 3,
            "componentType" : 5126,
            "count" : 19536,
            "max" : [
                0.8219407796859741,
                0.31861844658851624,
                0.5736760497093201
            ],
            "min" : [
                -0.785868227481842,
                -0.34759652614593506,
                -0.6812619566917419
            ],
            "type" : "VEC3"
        },
        {
            "bufferView" : 4,
            "componentType" : 5126,
            "count" : 19536,
            "type" : "VEC3"
        },
        {
            "bufferView" : 5,
            "componentType" : 5123,
            "count" : 19536,
            "type" : "SCALAR"
        },
        {
            "bufferView" : 6,
            "componentType" : 5126,
            "count" : 3144,
            "max" : [
                0.9350757598876953,
                0.3408624529838562,
                0.19325202703475952
            ],
            "min" : [
                -0.6374161839485168,
                -0.2564235329627991,
                -0.6566069722175598
            ],
            "type" : "VEC3"
        },
        {
            "bufferView" : 7,
            "componentType" : 5126,
            "count" : 3144,
            "type" : "VEC3"
        },
        {
            "bufferView" : 8,
            "componentType" : 5123,
            "count" : 3144,
            "type" : "SCALAR"
        },
        {
            "bufferView" : 9,
            "componentType" : 5126,
            "count" : 18144,
            "max" : [
                0.84447181224823,
                0.3689514696598053,
                0.6334050297737122
            ],
            "min" : [
                -0.9037122130393982,
                -0.4268455505371094,
                -0.7588639855384827
            ],
            "type" : "VEC3"
        },
        {
            "bufferView" : 10,
            "componentType" : 5126,
            "count" : 18144,
            "type" : "VEC3"
        },
        {
            "bufferView" : 11,
            "componentType" : 5123,
            "count" : 18144,
            "type" : "SCALAR"
        }
    ],
    "bufferViews" : [
        {
            "buffer" : 0,
            "byteLength" : 34272,
            "byteOffset" : 0
        },
        {
            "buffer" : 0,
            "byteLength" : 34272,
            "byteOffset" : 34272
        },
        {
            "buffer" : 0,
            "byteLength" : 5712,
            "byteOffset" : 68544
        },
        {
            "buffer" : 0,
            "byteLength" : 234432,
            "byteOffset" : 74256
        },
        {
            "buffer" : 0,
            "byteLength" : 234432,
            "byteOffset" : 308688
        },
        {
            "buffer" : 0,
            "byteLength" : 39072,
            "byteOffset" : 543120
        },
        {
            "buffer" : 0,
            "byteLength" : 37728,
            "byteOffset" : 582192
        },
        {
            "buffer" : 0,
            "byteLength" : 37728,
            "byteOffset" : 619920
        },
        {
            "buffer" : 0,
            "byteLength" : 6288,
            "byteOffset" : 657648
        },
        {
            "buffer" : 0,
            "byteLength" : 217728,
            "byteOffset" : 663936
        },
        {
            "buffer" : 0,
            "byteLength" : 217728,
            "byteOffset" : 881664
        },
        {
            "buffer" : 0,
            "byteLength" : 36288,
            "byteOffset" : 1099392
        }
    ],
    "buffers" : [
        {
            "byteLength" : 1135680,
            "uri" : "data:application/octet-stream;base64,"
        }
    ]
}
